<svg width="151" height="188" viewBox="0 0 151 188" fill="none" xmlns="http://www.w3.org/2000/svg">
<rect x="0.5" y="0.5" width="150" height="187" fill="white" stroke="#002146"/>
<path d="M44.2659 63.6821V65.1675H37.7151V63.6821H44.2659ZM44.1707 56.9854L38.5593 65.1675H37.22V64.0757L42.8757 55.9253H44.1707V56.9854ZM43.5168 55.9253V57.417H37.2263V55.9253H43.5168ZM44.9324 61.8032V61.6699C44.9324 61.1663 45.0043 60.703 45.1482 60.2798C45.2921 59.8524 45.5015 59.4821 45.7766 59.1689C46.0517 58.8558 46.3902 58.6125 46.7922 58.439C47.1943 58.2612 47.6555 58.1724 48.176 58.1724C48.6965 58.1724 49.1599 58.2612 49.5662 58.439C49.9724 58.6125 50.3131 58.8558 50.5881 59.1689C50.8674 59.4821 51.079 59.8524 51.2229 60.2798C51.3668 60.703 51.4387 61.1663 51.4387 61.6699V61.8032C51.4387 62.3026 51.3668 62.766 51.2229 63.1934C51.079 63.6165 50.8674 63.9868 50.5881 64.3042C50.3131 64.6174 49.9745 64.8607 49.5725 65.0342C49.1705 65.2077 48.7092 65.2944 48.1887 65.2944C47.6682 65.2944 47.2048 65.2077 46.7986 65.0342C46.3966 64.8607 46.0559 64.6174 45.7766 64.3042C45.5015 63.9868 45.2921 63.6165 45.1482 63.1934C45.0043 62.766 44.9324 62.3026 44.9324 61.8032ZM46.7605 61.6699V61.8032C46.7605 62.091 46.7859 62.3597 46.8367 62.6094C46.8875 62.859 46.9679 63.0791 47.0779 63.2695C47.1921 63.4557 47.3403 63.6017 47.5222 63.7075C47.7042 63.8133 47.9264 63.8662 48.1887 63.8662C48.4426 63.8662 48.6606 63.8133 48.8425 63.7075C49.0245 63.6017 49.1705 63.4557 49.2805 63.2695C49.3905 63.0791 49.4709 62.859 49.5217 62.6094C49.5767 62.3597 49.6042 62.091 49.6042 61.8032V61.6699C49.6042 61.3906 49.5767 61.1283 49.5217 60.8828C49.4709 60.6331 49.3884 60.4131 49.2742 60.2227C49.1641 60.028 49.0181 59.8757 48.8362 59.7656C48.6542 59.6556 48.4342 59.6006 48.176 59.6006C47.9179 59.6006 47.6978 59.6556 47.5159 59.7656C47.3381 59.8757 47.1921 60.028 47.0779 60.2227C46.9679 60.4131 46.8875 60.6331 46.8367 60.8828C46.7859 61.1283 46.7605 61.3906 46.7605 61.6699ZM54.3523 59.7656V65.1675H52.5242V58.2993H54.238L54.3523 59.7656ZM54.0857 61.4922H53.5906C53.5906 60.9844 53.6562 60.5273 53.7874 60.1211C53.9185 59.7106 54.1026 59.3615 54.3396 59.0737C54.5766 58.7817 54.858 58.5596 55.1838 58.4072C55.5139 58.2507 55.8821 58.1724 56.2883 58.1724C56.6099 58.1724 56.9041 58.2189 57.1707 58.312C57.4373 58.4051 57.6658 58.5532 57.8562 58.7563C58.0509 58.9595 58.199 59.2282 58.3005 59.5625C58.4063 59.8968 58.4592 60.3052 58.4592 60.7876V65.1675H56.6184V60.7812C56.6184 60.4766 56.5761 60.2396 56.4915 60.0703C56.4068 59.901 56.282 59.7826 56.1169 59.7148C55.9561 59.6429 55.7572 59.6069 55.5203 59.6069C55.2748 59.6069 55.0611 59.6556 54.8792 59.7529C54.7014 59.8503 54.5533 59.9857 54.4348 60.1592C54.3206 60.3285 54.2338 60.5273 54.1746 60.7559C54.1153 60.9844 54.0857 61.2298 54.0857 61.4922ZM63.5564 63.6187V60.5591C63.5564 60.339 63.5204 60.1507 63.4485 59.9941C63.3765 59.8333 63.2644 59.7085 63.1121 59.6196C62.9639 59.5308 62.7714 59.4863 62.5344 59.4863C62.3313 59.4863 62.1557 59.5223 62.0076 59.5942C61.8595 59.6619 61.7452 59.7614 61.6648 59.8926C61.5844 60.0195 61.5442 60.1698 61.5442 60.3433H59.7161C59.7161 60.0513 59.7838 59.7741 59.9192 59.5117C60.0546 59.2493 60.2514 59.0187 60.5095 58.8198C60.7677 58.6167 61.0745 58.458 61.4299 58.3438C61.7896 58.2295 62.1917 58.1724 62.636 58.1724C63.1692 58.1724 63.6431 58.2612 64.0579 58.439C64.4726 58.6167 64.7984 58.8833 65.0354 59.2388C65.2766 59.5942 65.3972 60.0386 65.3972 60.5718V63.5107C65.3972 63.8874 65.4205 64.1963 65.467 64.4375C65.5136 64.6745 65.5813 64.8818 65.6702 65.0596V65.1675H63.823C63.7341 64.9813 63.6664 64.7485 63.6199 64.4692C63.5776 64.1857 63.5564 63.9022 63.5564 63.6187ZM63.7976 60.9844L63.8103 62.019H62.7883C62.5471 62.019 62.3376 62.0465 62.1599 62.1016C61.9822 62.1566 61.8362 62.2349 61.7219 62.3364C61.6077 62.4338 61.523 62.548 61.468 62.6792C61.4172 62.8104 61.3918 62.9543 61.3918 63.1108C61.3918 63.2674 61.4278 63.4092 61.4998 63.5361C61.5717 63.6589 61.6754 63.7562 61.8108 63.8281C61.9462 63.8958 62.1049 63.9297 62.2869 63.9297C62.5619 63.9297 62.801 63.8747 63.0042 63.7646C63.2073 63.6546 63.3639 63.5192 63.4739 63.3584C63.5881 63.1976 63.6474 63.0452 63.6516 62.9014L64.134 63.6758C64.0663 63.8493 63.9732 64.0291 63.8547 64.2153C63.7405 64.4015 63.5945 64.5771 63.4167 64.7422C63.239 64.903 63.0253 65.0363 62.7756 65.1421C62.526 65.2437 62.2297 65.2944 61.887 65.2944C61.4511 65.2944 61.0554 65.2077 60.7 65.0342C60.3487 64.8564 60.0694 64.6131 59.8621 64.3042C59.6589 63.991 59.5574 63.6356 59.5574 63.2378C59.5574 62.8781 59.6251 62.5586 59.7605 62.2793C59.8959 62 60.0948 61.7651 60.3572 61.5747C60.6238 61.38 60.956 61.234 61.3538 61.1367C61.7515 61.0352 62.2128 60.9844 62.7375 60.9844H63.7976ZM74.0999 63.6694V55.4175H75.9407V65.1675H74.2839L74.0999 63.6694ZM69.7581 61.8159V61.6826C69.7581 61.1579 69.8173 60.6818 69.9358 60.2544C70.0543 59.8228 70.2278 59.4525 70.4563 59.1436C70.6848 58.8346 70.9662 58.5955 71.3005 58.4263C71.6348 58.257 72.0157 58.1724 72.4431 58.1724C72.8451 58.1724 73.1964 58.257 73.4968 58.4263C73.8015 58.5955 74.0597 58.8368 74.2712 59.1499C74.4871 59.4588 74.6606 59.8249 74.7917 60.248C74.9229 60.667 75.0181 61.1261 75.0774 61.6255V61.9175C75.0181 62.3957 74.9229 62.84 74.7917 63.2505C74.6606 63.661 74.4871 64.0207 74.2712 64.3296C74.0597 64.6343 73.8015 64.8713 73.4968 65.0405C73.1921 65.2098 72.8367 65.2944 72.4304 65.2944C72.003 65.2944 71.6222 65.2077 71.2878 65.0342C70.9578 64.8607 70.6785 64.6174 70.45 64.3042C70.2257 63.991 70.0543 63.6229 69.9358 63.1997C69.8173 62.7765 69.7581 62.3153 69.7581 61.8159ZM71.5862 61.6826V61.8159C71.5862 62.0994 71.6073 62.3639 71.6497 62.6094C71.6962 62.8548 71.7703 63.0728 71.8718 63.2632C71.9776 63.4494 72.113 63.5954 72.2781 63.7012C72.4473 63.8027 72.6526 63.8535 72.8938 63.8535C73.2069 63.8535 73.4651 63.7837 73.6682 63.644C73.8713 63.5002 74.0258 63.3034 74.1316 63.0537C74.2416 62.804 74.3051 62.5163 74.322 62.1904V61.3589C74.3093 61.0923 74.2712 60.8532 74.2078 60.6416C74.1485 60.4258 74.0597 60.2417 73.9412 60.0894C73.8269 59.937 73.683 59.8185 73.5095 59.7339C73.3403 59.6493 73.1392 59.6069 72.9065 59.6069C72.6695 59.6069 72.4664 59.6619 72.2971 59.772C72.1278 59.8778 71.9903 60.0238 71.8845 60.21C71.783 60.3962 71.7068 60.6162 71.656 60.8701C71.6095 61.1198 71.5862 61.3906 71.5862 61.6826ZM80.53 65.2944C79.9968 65.2944 79.5186 65.2098 79.0955 65.0405C78.6723 64.867 78.3126 64.6279 78.0164 64.3232C77.7244 64.0186 77.5001 63.6652 77.3435 63.2632C77.1869 62.8569 77.1086 62.4253 77.1086 61.9683V61.7144C77.1086 61.1938 77.1827 60.7178 77.3308 60.2861C77.4789 59.8545 77.6905 59.48 77.9656 59.1626C78.2449 58.8452 78.5834 58.6019 78.9812 58.4326C79.379 58.2591 79.8276 58.1724 80.3269 58.1724C80.8136 58.1724 81.2452 58.2528 81.6218 58.4136C81.9985 58.5744 82.3137 58.8029 82.5676 59.0991C82.8258 59.3953 83.0204 59.7508 83.1516 60.1655C83.2828 60.576 83.3484 61.033 83.3484 61.5366V62.2983H77.8894V61.0796H81.552V60.9399C81.552 60.686 81.5055 60.4596 81.4124 60.2607C81.3235 60.0576 81.1881 59.8968 81.0061 59.7783C80.8241 59.6598 80.5914 59.6006 80.3079 59.6006C80.0667 59.6006 79.8593 59.6535 79.6858 59.7593C79.5123 59.8651 79.3705 60.0132 79.2605 60.2036C79.1547 60.394 79.0743 60.6183 79.0193 60.8765C78.9685 61.1304 78.9431 61.4097 78.9431 61.7144V61.9683C78.9431 62.2433 78.9812 62.4972 79.0574 62.73C79.1378 62.9627 79.2499 63.1637 79.3938 63.333C79.5419 63.5023 79.7196 63.6335 79.927 63.7266C80.1386 63.8197 80.3777 63.8662 80.6443 63.8662C80.9744 63.8662 81.2812 63.8027 81.5647 63.6758C81.8525 63.5446 82.1 63.3478 82.3074 63.0854L83.196 64.0503C83.0522 64.2576 82.8554 64.4565 82.6057 64.647C82.3603 64.8374 82.064 64.994 81.717 65.1167C81.37 65.2352 80.9744 65.2944 80.53 65.2944ZM87.741 55.9253H91.1877C91.8944 55.9253 92.5017 56.0311 93.0095 56.2427C93.5216 56.4543 93.9151 56.7674 94.1902 57.1821C94.4653 57.5968 94.6028 58.1068 94.6028 58.7119C94.6028 59.207 94.5181 59.6323 94.3489 59.9878C94.1838 60.339 93.949 60.6331 93.6443 60.8701C93.3438 61.1029 92.9905 61.2891 92.5842 61.4287L91.9812 61.7461H88.9851L88.9724 60.2607H91.2004C91.5347 60.2607 91.8119 60.2015 92.032 60.083C92.252 59.9645 92.4171 59.7995 92.5271 59.5879C92.6414 59.3763 92.6985 59.1309 92.6985 58.8516C92.6985 58.5553 92.6435 58.2993 92.5334 58.0835C92.4234 57.8677 92.2563 57.7026 92.032 57.5884C91.8077 57.4741 91.5263 57.417 91.1877 57.417H89.6453V65.1675H87.741V55.9253ZM92.908 65.1675L90.8005 61.0479L92.8127 61.0352L94.9456 65.0786V65.1675H92.908ZM97.8845 58.2993V65.1675H96.05V58.2993H97.8845ZM95.9358 56.5093C95.9358 56.2427 96.0289 56.0226 96.2151 55.8491C96.4013 55.6756 96.651 55.5889 96.9641 55.5889C97.273 55.5889 97.5206 55.6756 97.7068 55.8491C97.8972 56.0226 97.9924 56.2427 97.9924 56.5093C97.9924 56.7759 97.8972 56.9959 97.7068 57.1694C97.5206 57.3429 97.273 57.4297 96.9641 57.4297C96.651 57.4297 96.4013 57.3429 96.2151 57.1694C96.0289 56.9959 95.9358 56.7759 95.9358 56.5093ZM103.109 63.2695C103.109 63.1383 103.071 63.0199 102.994 62.9141C102.918 62.8083 102.776 62.7109 102.569 62.6221C102.366 62.529 102.072 62.4443 101.687 62.3682C101.34 62.292 101.016 62.1968 100.716 62.0825C100.419 61.964 100.161 61.8223 99.9412 61.6572C99.7253 61.4922 99.5561 61.2975 99.4333 61.0732C99.3106 60.8447 99.2493 60.5845 99.2493 60.2925C99.2493 60.0047 99.3106 59.7339 99.4333 59.48C99.5603 59.2261 99.7402 59.0018 99.9729 58.8071C100.21 58.6082 100.498 58.4538 100.836 58.3438C101.179 58.2295 101.564 58.1724 101.991 58.1724C102.588 58.1724 103.1 58.2676 103.528 58.458C103.959 58.6484 104.289 58.9108 104.518 59.2451C104.751 59.5752 104.867 59.9518 104.867 60.375H103.039C103.039 60.1973 103.001 60.0386 102.925 59.8989C102.853 59.755 102.738 59.6429 102.582 59.5625C102.429 59.4779 102.231 59.4355 101.985 59.4355C101.782 59.4355 101.606 59.4715 101.458 59.5435C101.31 59.6112 101.196 59.7043 101.115 59.8228C101.039 59.937 101.001 60.064 101.001 60.2036C101.001 60.3094 101.022 60.4046 101.065 60.4893C101.111 60.5697 101.185 60.6437 101.287 60.7114C101.388 60.7791 101.52 60.8426 101.68 60.9019C101.845 60.9569 102.049 61.0076 102.29 61.0542C102.785 61.1558 103.227 61.2891 103.616 61.4541C104.006 61.6149 104.315 61.835 104.543 62.1143C104.772 62.3893 104.886 62.7511 104.886 63.1997C104.886 63.5044 104.818 63.7837 104.683 64.0376C104.547 64.2915 104.353 64.5137 104.099 64.7041C103.845 64.8903 103.54 65.0363 103.185 65.1421C102.834 65.2437 102.438 65.2944 101.998 65.2944C101.359 65.2944 100.817 65.1802 100.373 64.9517C99.9327 64.7231 99.5984 64.4333 99.3699 64.082C99.1456 63.7266 99.0334 63.3626 99.0334 62.9902H100.766C100.775 63.2399 100.838 63.4409 100.957 63.5933C101.08 63.7456 101.234 63.8556 101.42 63.9233C101.611 63.991 101.816 64.0249 102.036 64.0249C102.273 64.0249 102.47 63.9932 102.626 63.9297C102.783 63.862 102.901 63.7731 102.982 63.6631C103.066 63.5488 103.109 63.4176 103.109 63.2695ZM108.91 63.8662C109.135 63.8662 109.334 63.8239 109.507 63.7393C109.681 63.6504 109.816 63.5277 109.913 63.3711C110.015 63.2103 110.068 63.022 110.072 62.8062H111.792C111.788 63.2886 111.659 63.7181 111.405 64.0947C111.151 64.4671 110.81 64.7612 110.383 64.9771C109.956 65.1886 109.477 65.2944 108.948 65.2944C108.415 65.2944 107.95 65.2056 107.552 65.0278C107.158 64.8501 106.83 64.6047 106.568 64.2915C106.306 63.9741 106.109 63.606 105.978 63.187C105.847 62.7638 105.781 62.311 105.781 61.8286V61.6445C105.781 61.1579 105.847 60.7051 105.978 60.2861C106.109 59.863 106.306 59.4948 106.568 59.1816C106.83 58.8643 107.158 58.6167 107.552 58.439C107.946 58.2612 108.407 58.1724 108.936 58.1724C109.499 58.1724 109.992 58.2803 110.415 58.4961C110.842 58.7119 111.177 59.0208 111.418 59.4229C111.663 59.8206 111.788 60.2925 111.792 60.8384H110.072C110.068 60.6099 110.019 60.4025 109.926 60.2163C109.837 60.0301 109.706 59.882 109.532 59.772C109.363 59.6577 109.154 59.6006 108.904 59.6006C108.637 59.6006 108.42 59.6577 108.25 59.772C108.081 59.882 107.95 60.0343 107.857 60.229C107.764 60.4194 107.698 60.6374 107.66 60.8828C107.626 61.124 107.609 61.3779 107.609 61.6445V61.8286C107.609 62.0952 107.626 62.3512 107.66 62.5967C107.694 62.8421 107.757 63.0601 107.85 63.2505C107.948 63.4409 108.081 63.5911 108.25 63.7012C108.42 63.8112 108.64 63.8662 108.91 63.8662ZM112.56 61.8032V61.6699C112.56 61.1663 112.632 60.703 112.776 60.2798C112.92 59.8524 113.129 59.4821 113.405 59.1689C113.68 58.8558 114.018 58.6125 114.42 58.439C114.822 58.2612 115.283 58.1724 115.804 58.1724C116.324 58.1724 116.788 58.2612 117.194 58.439C117.6 58.6125 117.941 58.8558 118.216 59.1689C118.495 59.4821 118.707 59.8524 118.851 60.2798C118.995 60.703 119.067 61.1663 119.067 61.6699V61.8032C119.067 62.3026 118.995 62.766 118.851 63.1934C118.707 63.6165 118.495 63.9868 118.216 64.3042C117.941 64.6174 117.602 64.8607 117.2 65.0342C116.798 65.2077 116.337 65.2944 115.817 65.2944C115.296 65.2944 114.833 65.2077 114.427 65.0342C114.024 64.8607 113.684 64.6174 113.405 64.3042C113.129 63.9868 112.92 63.6165 112.776 63.1934C112.632 62.766 112.56 62.3026 112.56 61.8032ZM114.388 61.6699V61.8032C114.388 62.091 114.414 62.3597 114.465 62.6094C114.515 62.859 114.596 63.0791 114.706 63.2695C114.82 63.4557 114.968 63.6017 115.15 63.7075C115.332 63.8133 115.554 63.8662 115.817 63.8662C116.071 63.8662 116.288 63.8133 116.47 63.7075C116.652 63.6017 116.798 63.4557 116.908 63.2695C117.018 63.0791 117.099 62.859 117.15 62.6094C117.205 62.3597 117.232 62.091 117.232 61.8032V61.6699C117.232 61.3906 117.205 61.1283 117.15 60.8828C117.099 60.6331 117.016 60.4131 116.902 60.2227C116.792 60.028 116.646 59.8757 116.464 59.7656C116.282 59.6556 116.062 59.6006 115.804 59.6006C115.546 59.6006 115.326 59.6556 115.144 59.7656C114.966 59.8757 114.82 60.028 114.706 60.2227C114.596 60.4131 114.515 60.6331 114.465 60.8828C114.414 61.1283 114.388 61.3906 114.388 61.6699Z" fill="#E01010"/>
<path d="M44.2659 28.2476V29.7329H37.7151V28.2476H44.2659ZM44.1707 21.5508L38.5593 29.7329H37.22V28.6411L42.8757 20.4907H44.1707V21.5508ZM43.5168 20.4907V21.9824H37.2263V20.4907H43.5168ZM44.9324 26.3687V26.2354C44.9324 25.7318 45.0043 25.2684 45.1482 24.8452C45.2921 24.4178 45.5015 24.0475 45.7766 23.7344C46.0517 23.4212 46.3902 23.1779 46.7922 23.0044C47.1943 22.8267 47.6555 22.7378 48.176 22.7378C48.6965 22.7378 49.1599 22.8267 49.5662 23.0044C49.9724 23.1779 50.3131 23.4212 50.5881 23.7344C50.8674 24.0475 51.079 24.4178 51.2229 24.8452C51.3668 25.2684 51.4387 25.7318 51.4387 26.2354V26.3687C51.4387 26.868 51.3668 27.3314 51.2229 27.7588C51.079 28.182 50.8674 28.5522 50.5881 28.8696C50.3131 29.1828 49.9745 29.4261 49.5725 29.5996C49.1705 29.7731 48.7092 29.8599 48.1887 29.8599C47.6682 29.8599 47.2048 29.7731 46.7986 29.5996C46.3966 29.4261 46.0559 29.1828 45.7766 28.8696C45.5015 28.5522 45.2921 28.182 45.1482 27.7588C45.0043 27.3314 44.9324 26.868 44.9324 26.3687ZM46.7605 26.2354V26.3687C46.7605 26.6564 46.7859 26.9251 46.8367 27.1748C46.8875 27.4245 46.9679 27.6445 47.0779 27.835C47.1921 28.0212 47.3403 28.1672 47.5222 28.2729C47.7042 28.3787 47.9264 28.4316 48.1887 28.4316C48.4426 28.4316 48.6606 28.3787 48.8425 28.2729C49.0245 28.1672 49.1705 28.0212 49.2805 27.835C49.3905 27.6445 49.4709 27.4245 49.5217 27.1748C49.5767 26.9251 49.6042 26.6564 49.6042 26.3687V26.2354C49.6042 25.9561 49.5767 25.6937 49.5217 25.4482C49.4709 25.1986 49.3884 24.9785 49.2742 24.7881C49.1641 24.5934 49.0181 24.4411 48.8362 24.3311C48.6542 24.221 48.4342 24.166 48.176 24.166C47.9179 24.166 47.6978 24.221 47.5159 24.3311C47.3381 24.4411 47.1921 24.5934 47.0779 24.7881C46.9679 24.9785 46.8875 25.1986 46.8367 25.4482C46.7859 25.6937 46.7605 25.9561 46.7605 26.2354ZM54.3523 24.3311V29.7329H52.5242V22.8647H54.238L54.3523 24.3311ZM54.0857 26.0576H53.5906C53.5906 25.5498 53.6562 25.0928 53.7874 24.6865C53.9185 24.276 54.1026 23.9269 54.3396 23.6392C54.5766 23.3472 54.858 23.125 55.1838 22.9727C55.5139 22.8161 55.8821 22.7378 56.2883 22.7378C56.6099 22.7378 56.9041 22.7843 57.1707 22.8774C57.4373 22.9705 57.6658 23.1187 57.8562 23.3218C58.0509 23.5249 58.199 23.7936 58.3005 24.1279C58.4063 24.4622 58.4592 24.8706 58.4592 25.353V29.7329H56.6184V25.3467C56.6184 25.042 56.5761 24.805 56.4915 24.6357C56.4068 24.4665 56.282 24.348 56.1169 24.2803C55.9561 24.2083 55.7572 24.1724 55.5203 24.1724C55.2748 24.1724 55.0611 24.221 54.8792 24.3184C54.7014 24.4157 54.5533 24.5511 54.4348 24.7246C54.3206 24.8939 54.2338 25.0928 54.1746 25.3213C54.1153 25.5498 54.0857 25.7952 54.0857 26.0576ZM63.5564 28.1841V25.1245C63.5564 24.9045 63.5204 24.7161 63.4485 24.5596C63.3765 24.3988 63.2644 24.2739 63.1121 24.1851C62.9639 24.0962 62.7714 24.0518 62.5344 24.0518C62.3313 24.0518 62.1557 24.0877 62.0076 24.1597C61.8595 24.2274 61.7452 24.3268 61.6648 24.458C61.5844 24.585 61.5442 24.7352 61.5442 24.9087H59.7161C59.7161 24.6167 59.7838 24.3395 59.9192 24.0771C60.0546 23.8148 60.2514 23.5841 60.5095 23.3853C60.7677 23.1821 61.0745 23.0234 61.4299 22.9092C61.7896 22.7949 62.1917 22.7378 62.636 22.7378C63.1692 22.7378 63.6431 22.8267 64.0579 23.0044C64.4726 23.1821 64.7984 23.4487 65.0354 23.8042C65.2766 24.1597 65.3972 24.604 65.3972 25.1372V28.0762C65.3972 28.4528 65.4205 28.7617 65.467 29.0029C65.5136 29.2399 65.5813 29.4473 65.6702 29.625V29.7329H63.823C63.7341 29.5467 63.6664 29.314 63.6199 29.0347C63.5776 28.7511 63.5564 28.4676 63.5564 28.1841ZM63.7976 25.5498L63.8103 26.5845H62.7883C62.5471 26.5845 62.3376 26.612 62.1599 26.667C61.9822 26.722 61.8362 26.8003 61.7219 26.9019C61.6077 26.9992 61.523 27.1134 61.468 27.2446C61.4172 27.3758 61.3918 27.5197 61.3918 27.6763C61.3918 27.8328 61.4278 27.9746 61.4998 28.1016C61.5717 28.2243 61.6754 28.3216 61.8108 28.3936C61.9462 28.4613 62.1049 28.4951 62.2869 28.4951C62.5619 28.4951 62.801 28.4401 63.0042 28.3301C63.2073 28.2201 63.3639 28.0846 63.4739 27.9238C63.5881 27.763 63.6474 27.6107 63.6516 27.4668L64.134 28.2412C64.0663 28.4147 63.9732 28.5946 63.8547 28.7808C63.7405 28.967 63.5945 29.1426 63.4167 29.3076C63.239 29.4684 63.0253 29.6017 62.7756 29.7075C62.526 29.8091 62.2297 29.8599 61.887 29.8599C61.4511 29.8599 61.0554 29.7731 60.7 29.5996C60.3487 29.4219 60.0694 29.1785 59.8621 28.8696C59.6589 28.5565 59.5574 28.201 59.5574 27.8032C59.5574 27.4435 59.6251 27.124 59.7605 26.8447C59.8959 26.5654 60.0948 26.3306 60.3572 26.1401C60.6238 25.9455 60.956 25.7995 61.3538 25.7021C61.7515 25.6006 62.2128 25.5498 62.7375 25.5498H63.7976ZM74.0999 28.2349V19.9829H75.9407V29.7329H74.2839L74.0999 28.2349ZM69.7581 26.3813V26.248C69.7581 25.7233 69.8173 25.2472 69.9358 24.8198C70.0543 24.3882 70.2278 24.0179 70.4563 23.709C70.6848 23.4001 70.9662 23.161 71.3005 22.9917C71.6348 22.8224 72.0157 22.7378 72.4431 22.7378C72.8451 22.7378 73.1964 22.8224 73.4968 22.9917C73.8015 23.161 74.0597 23.4022 74.2712 23.7153C74.4871 24.0243 74.6606 24.3903 74.7917 24.8135C74.9229 25.2324 75.0181 25.6916 75.0774 26.1909V26.4829C75.0181 26.9611 74.9229 27.4054 74.7917 27.8159C74.6606 28.2264 74.4871 28.5861 74.2712 28.895C74.0597 29.1997 73.8015 29.4367 73.4968 29.606C73.1921 29.7752 72.8367 29.8599 72.4304 29.8599C72.003 29.8599 71.6222 29.7731 71.2878 29.5996C70.9578 29.4261 70.6785 29.1828 70.45 28.8696C70.2257 28.5565 70.0543 28.1883 69.9358 27.7651C69.8173 27.342 69.7581 26.8807 69.7581 26.3813ZM71.5862 26.248V26.3813C71.5862 26.6649 71.6073 26.9294 71.6497 27.1748C71.6962 27.4202 71.7703 27.6382 71.8718 27.8286C71.9776 28.0148 72.113 28.1608 72.2781 28.2666C72.4473 28.3682 72.6526 28.4189 72.8938 28.4189C73.2069 28.4189 73.4651 28.3491 73.6682 28.2095C73.8713 28.0656 74.0258 27.8688 74.1316 27.6191C74.2416 27.3695 74.3051 27.0817 74.322 26.7559V25.9243C74.3093 25.6577 74.2712 25.4186 74.2078 25.207C74.1485 24.9912 74.0597 24.8071 73.9412 24.6548C73.8269 24.5024 73.683 24.384 73.5095 24.2993C73.3403 24.2147 73.1392 24.1724 72.9065 24.1724C72.6695 24.1724 72.4664 24.2274 72.2971 24.3374C72.1278 24.4432 71.9903 24.5892 71.8845 24.7754C71.783 24.9616 71.7068 25.1816 71.656 25.4355C71.6095 25.6852 71.5862 25.9561 71.5862 26.248ZM80.53 29.8599C79.9968 29.8599 79.5186 29.7752 79.0955 29.606C78.6723 29.4325 78.3126 29.1934 78.0164 28.8887C77.7244 28.584 77.5001 28.2306 77.3435 27.8286C77.1869 27.4224 77.1086 26.9907 77.1086 26.5337V26.2798C77.1086 25.7593 77.1827 25.2832 77.3308 24.8516C77.4789 24.4199 77.6905 24.0454 77.9656 23.728C78.2449 23.4106 78.5834 23.1673 78.9812 22.998C79.379 22.8245 79.8276 22.7378 80.3269 22.7378C80.8136 22.7378 81.2452 22.8182 81.6218 22.979C81.9985 23.1398 82.3137 23.3683 82.5676 23.6646C82.8258 23.9608 83.0204 24.3162 83.1516 24.731C83.2828 25.1414 83.3484 25.5985 83.3484 26.1021V26.8638H77.8894V25.645H81.552V25.5054C81.552 25.2515 81.5055 25.0251 81.4124 24.8262C81.3235 24.623 81.1881 24.4622 81.0061 24.3438C80.8241 24.2253 80.5914 24.166 80.3079 24.166C80.0667 24.166 79.8593 24.2189 79.6858 24.3247C79.5123 24.4305 79.3705 24.5786 79.2605 24.769C79.1547 24.9595 79.0743 25.1838 79.0193 25.4419C78.9685 25.6958 78.9431 25.9751 78.9431 26.2798V26.5337C78.9431 26.8088 78.9812 27.0627 79.0574 27.2954C79.1378 27.5282 79.2499 27.7292 79.3938 27.8984C79.5419 28.0677 79.7196 28.1989 79.927 28.292C80.1386 28.3851 80.3777 28.4316 80.6443 28.4316C80.9744 28.4316 81.2812 28.3682 81.5647 28.2412C81.8525 28.11 82.1 27.9132 82.3074 27.6509L83.196 28.6157C83.0522 28.8231 82.8554 29.022 82.6057 29.2124C82.3603 29.4028 82.064 29.5594 81.717 29.6821C81.37 29.8006 80.9744 29.8599 80.53 29.8599ZM87.741 20.4907H91.1877C91.8944 20.4907 92.5017 20.5965 93.0095 20.8081C93.5216 21.0197 93.9151 21.3328 94.1902 21.7476C94.4653 22.1623 94.6028 22.6722 94.6028 23.2773C94.6028 23.7725 94.5181 24.1978 94.3489 24.5532C94.1838 24.9045 93.949 25.1986 93.6443 25.4355C93.3438 25.6683 92.9905 25.8545 92.5842 25.9941L91.9812 26.3115H88.9851L88.9724 24.8262H91.2004C91.5347 24.8262 91.8119 24.7669 92.032 24.6484C92.252 24.5299 92.4171 24.3649 92.5271 24.1533C92.6414 23.9417 92.6985 23.6963 92.6985 23.417C92.6985 23.1208 92.6435 22.8647 92.5334 22.6489C92.4234 22.4331 92.2563 22.2681 92.032 22.1538C91.8077 22.0396 91.5263 21.9824 91.1877 21.9824H89.6453V29.7329H87.741V20.4907ZM92.908 29.7329L90.8005 25.6133L92.8127 25.6006L94.9456 29.644V29.7329H92.908ZM97.8845 22.8647V29.7329H96.05V22.8647H97.8845ZM95.9358 21.0747C95.9358 20.8081 96.0289 20.5881 96.2151 20.4146C96.4013 20.241 96.651 20.1543 96.9641 20.1543C97.273 20.1543 97.5206 20.241 97.7068 20.4146C97.8972 20.5881 97.9924 20.8081 97.9924 21.0747C97.9924 21.3413 97.8972 21.5614 97.7068 21.7349C97.5206 21.9084 97.273 21.9951 96.9641 21.9951C96.651 21.9951 96.4013 21.9084 96.2151 21.7349C96.0289 21.5614 95.9358 21.3413 95.9358 21.0747ZM103.109 27.835C103.109 27.7038 103.071 27.5853 102.994 27.4795C102.918 27.3737 102.776 27.2764 102.569 27.1875C102.366 27.0944 102.072 27.0098 101.687 26.9336C101.34 26.8574 101.016 26.7622 100.716 26.6479C100.419 26.5295 100.161 26.3877 99.9412 26.2227C99.7253 26.0576 99.5561 25.863 99.4333 25.6387C99.3106 25.4102 99.2493 25.1499 99.2493 24.8579C99.2493 24.5701 99.3106 24.2993 99.4333 24.0454C99.5603 23.7915 99.7402 23.5672 99.9729 23.3726C100.21 23.1737 100.498 23.0192 100.836 22.9092C101.179 22.7949 101.564 22.7378 101.991 22.7378C102.588 22.7378 103.1 22.833 103.528 23.0234C103.959 23.2139 104.289 23.4762 104.518 23.8105C104.751 24.1406 104.867 24.5173 104.867 24.9404H103.039C103.039 24.7627 103.001 24.604 102.925 24.4644C102.853 24.3205 102.738 24.2083 102.582 24.1279C102.429 24.0433 102.231 24.001 101.985 24.001C101.782 24.001 101.606 24.0369 101.458 24.1089C101.31 24.1766 101.196 24.2697 101.115 24.3882C101.039 24.5024 101.001 24.6294 101.001 24.769C101.001 24.8748 101.022 24.9701 101.065 25.0547C101.111 25.1351 101.185 25.2091 101.287 25.2769C101.388 25.3446 101.52 25.408 101.68 25.4673C101.845 25.5223 102.049 25.5731 102.29 25.6196C102.785 25.7212 103.227 25.8545 103.616 26.0195C104.006 26.1803 104.315 26.4004 104.543 26.6797C104.772 26.9548 104.886 27.3166 104.886 27.7651C104.886 28.0698 104.818 28.3491 104.683 28.603C104.547 28.8569 104.353 29.0791 104.099 29.2695C103.845 29.4557 103.54 29.6017 103.185 29.7075C102.834 29.8091 102.438 29.8599 101.998 29.8599C101.359 29.8599 100.817 29.7456 100.373 29.5171C99.9327 29.2886 99.5984 28.9987 99.3699 28.6475C99.1456 28.292 99.0334 27.9281 99.0334 27.5557H100.766C100.775 27.8053 100.838 28.0063 100.957 28.1587C101.08 28.311 101.234 28.4211 101.42 28.4888C101.611 28.5565 101.816 28.5903 102.036 28.5903C102.273 28.5903 102.47 28.5586 102.626 28.4951C102.783 28.4274 102.901 28.3385 102.982 28.2285C103.066 28.1143 103.109 27.9831 103.109 27.835ZM108.91 28.4316C109.135 28.4316 109.334 28.3893 109.507 28.3047C109.681 28.2158 109.816 28.0931 109.913 27.9365C110.015 27.7757 110.068 27.5874 110.072 27.3716H111.792C111.788 27.854 111.659 28.2835 111.405 28.6602C111.151 29.0326 110.81 29.3267 110.383 29.5425C109.956 29.7541 109.477 29.8599 108.948 29.8599C108.415 29.8599 107.95 29.771 107.552 29.5933C107.158 29.4155 106.83 29.1701 106.568 28.8569C106.306 28.5396 106.109 28.1714 105.978 27.7524C105.847 27.3293 105.781 26.8765 105.781 26.394V26.21C105.781 25.7233 105.847 25.2705 105.978 24.8516C106.109 24.4284 106.306 24.0602 106.568 23.7471C106.83 23.4297 107.158 23.1821 107.552 23.0044C107.946 22.8267 108.407 22.7378 108.936 22.7378C109.499 22.7378 109.992 22.8457 110.415 23.0615C110.842 23.2773 111.177 23.5863 111.418 23.9883C111.663 24.3861 111.788 24.8579 111.792 25.4038H110.072C110.068 25.1753 110.019 24.9679 109.926 24.7817C109.837 24.5955 109.706 24.4474 109.532 24.3374C109.363 24.2231 109.154 24.166 108.904 24.166C108.637 24.166 108.42 24.2231 108.25 24.3374C108.081 24.4474 107.95 24.5998 107.857 24.7944C107.764 24.9849 107.698 25.2028 107.66 25.4482C107.626 25.6895 107.609 25.9434 107.609 26.21V26.394C107.609 26.6606 107.626 26.9167 107.66 27.1621C107.694 27.4076 107.757 27.6255 107.85 27.8159C107.948 28.0063 108.081 28.1566 108.25 28.2666C108.42 28.3766 108.64 28.4316 108.91 28.4316ZM112.56 26.3687V26.2354C112.56 25.7318 112.632 25.2684 112.776 24.8452C112.92 24.4178 113.129 24.0475 113.405 23.7344C113.68 23.4212 114.018 23.1779 114.42 23.0044C114.822 22.8267 115.283 22.7378 115.804 22.7378C116.324 22.7378 116.788 22.8267 117.194 23.0044C117.6 23.1779 117.941 23.4212 118.216 23.7344C118.495 24.0475 118.707 24.4178 118.851 24.8452C118.995 25.2684 119.067 25.7318 119.067 26.2354V26.3687C119.067 26.868 118.995 27.3314 118.851 27.7588C118.707 28.182 118.495 28.5522 118.216 28.8696C117.941 29.1828 117.602 29.4261 117.2 29.5996C116.798 29.7731 116.337 29.8599 115.817 29.8599C115.296 29.8599 114.833 29.7731 114.427 29.5996C114.024 29.4261 113.684 29.1828 113.405 28.8696C113.129 28.5522 112.92 28.182 112.776 27.7588C112.632 27.3314 112.56 26.868 112.56 26.3687ZM114.388 26.2354V26.3687C114.388 26.6564 114.414 26.9251 114.465 27.1748C114.515 27.4245 114.596 27.6445 114.706 27.835C114.82 28.0212 114.968 28.1672 115.15 28.2729C115.332 28.3787 115.554 28.4316 115.817 28.4316C116.071 28.4316 116.288 28.3787 116.47 28.2729C116.652 28.1672 116.798 28.0212 116.908 27.835C117.018 27.6445 117.099 27.4245 117.15 27.1748C117.205 26.9251 117.232 26.6564 117.232 26.3687V26.2354C117.232 25.9561 117.205 25.6937 117.15 25.4482C117.099 25.1986 117.016 24.9785 116.902 24.7881C116.792 24.5934 116.646 24.4411 116.464 24.3311C116.282 24.221 116.062 24.166 115.804 24.166C115.546 24.166 115.326 24.221 115.144 24.3311C114.966 24.4411 114.82 24.5934 114.706 24.7881C114.596 24.9785 114.515 25.1986 114.465 25.4482C114.414 25.6937 114.388 25.9561 114.388 26.2354Z" fill="#E01010"/>
<path d="M41.1809 98.292H38.8259V96.8066H41.1809C41.5448 96.8066 41.8411 96.7474 42.0696 96.6289C42.2981 96.5062 42.4653 96.3369 42.571 96.1211C42.6768 95.9053 42.7297 95.6619 42.7297 95.3911C42.7297 95.116 42.6768 94.86 42.571 94.623C42.4653 94.3861 42.2981 94.1956 42.0696 94.0518C41.8411 93.9079 41.5448 93.8359 41.1809 93.8359H39.4861V101.586H37.5818V92.3442H41.1809C41.9045 92.3442 42.5245 92.4754 43.0408 92.7378C43.5613 92.9959 43.9591 93.3535 44.2341 93.8105C44.5092 94.2676 44.6467 94.7902 44.6467 95.3784C44.6467 95.9751 44.5092 96.4914 44.2341 96.9272C43.9591 97.3631 43.5613 97.6995 43.0408 97.9365C42.5245 98.1735 41.9045 98.292 41.1809 98.292ZM45.4656 98.2222V98.0889C45.4656 97.5853 45.5375 97.1219 45.6814 96.6987C45.8253 96.2713 46.0347 95.901 46.3098 95.5879C46.5849 95.2747 46.9234 95.0314 47.3254 94.8579C47.7275 94.6802 48.1887 94.5913 48.7092 94.5913C49.2297 94.5913 49.6931 94.6802 50.0994 94.8579C50.5056 95.0314 50.8463 95.2747 51.1213 95.5879C51.4006 95.901 51.6122 96.2713 51.7561 96.6987C51.9 97.1219 51.9719 97.5853 51.9719 98.0889V98.2222C51.9719 98.7215 51.9 99.1849 51.7561 99.6123C51.6122 100.035 51.4006 100.406 51.1213 100.723C50.8463 101.036 50.5077 101.28 50.1057 101.453C49.7037 101.627 49.2424 101.713 48.7219 101.713C48.2014 101.713 47.738 101.627 47.3318 101.453C46.9298 101.28 46.5891 101.036 46.3098 100.723C46.0347 100.406 45.8253 100.035 45.6814 99.6123C45.5375 99.1849 45.4656 98.7215 45.4656 98.2222ZM47.2937 98.0889V98.2222C47.2937 98.5099 47.3191 98.7786 47.3699 99.0283C47.4207 99.278 47.5011 99.498 47.6111 99.6885C47.7253 99.8747 47.8735 100.021 48.0554 100.126C48.2374 100.232 48.4596 100.285 48.7219 100.285C48.9758 100.285 49.1938 100.232 49.3757 100.126C49.5577 100.021 49.7037 99.8747 49.8137 99.6885C49.9237 99.498 50.0042 99.278 50.0549 99.0283C50.1099 98.7786 50.1375 98.5099 50.1375 98.2222V98.0889C50.1375 97.8096 50.1099 97.5472 50.0549 97.3018C50.0042 97.0521 49.9216 96.832 49.8074 96.6416C49.6973 96.4469 49.5514 96.2946 49.3694 96.1846C49.1874 96.0745 48.9674 96.0195 48.7092 96.0195C48.4511 96.0195 48.231 96.0745 48.0491 96.1846C47.8713 96.2946 47.7253 96.4469 47.6111 96.6416C47.5011 96.832 47.4207 97.0521 47.3699 97.3018C47.3191 97.5472 47.2937 97.8096 47.2937 98.0889ZM54.8855 96.1846V101.586H53.0574V94.7183H54.7712L54.8855 96.1846ZM54.6189 97.9111H54.1238C54.1238 97.4033 54.1894 96.9463 54.3206 96.54C54.4517 96.1296 54.6358 95.7804 54.8728 95.4927C55.1098 95.2007 55.3912 94.9785 55.717 94.8262C56.0471 94.6696 56.4153 94.5913 56.8215 94.5913C57.1431 94.5913 57.4373 94.6379 57.7039 94.731C57.9705 94.8241 58.199 94.9722 58.3894 95.1753C58.5841 95.3784 58.7322 95.6471 58.8337 95.9814C58.9395 96.3158 58.9924 96.7241 58.9924 97.2065V101.586H57.1516V97.2002C57.1516 96.8955 57.1093 96.6585 57.0247 96.4893C56.94 96.32 56.8152 96.2015 56.6501 96.1338C56.4893 96.0618 56.2904 96.0259 56.0535 96.0259C55.808 96.0259 55.5943 96.0745 55.4124 96.1719C55.2346 96.2692 55.0865 96.4046 54.968 96.5781C54.8538 96.7474 54.767 96.9463 54.7078 97.1748C54.6485 97.4033 54.6189 97.6488 54.6189 97.9111ZM63.7468 94.7183V96.0132H59.7478V94.7183H63.7468ZM60.738 93.0234H62.5662V99.5171C62.5662 99.716 62.5916 99.8683 62.6423 99.9741C62.6973 100.08 62.7778 100.154 62.8835 100.196C62.9893 100.234 63.1226 100.253 63.2834 100.253C63.3977 100.253 63.4993 100.249 63.5881 100.241C63.6812 100.228 63.7595 100.215 63.823 100.203L63.8293 101.548C63.6728 101.599 63.5035 101.639 63.3215 101.669C63.1396 101.699 62.9386 101.713 62.7185 101.713C62.3165 101.713 61.9653 101.648 61.6648 101.517C61.3686 101.381 61.1401 101.165 60.9792 100.869C60.8184 100.573 60.738 100.184 60.738 99.7012V93.0234ZM64.3308 98.2222V98.0889C64.3308 97.5853 64.4028 97.1219 64.5466 96.6987C64.6905 96.2713 64.9 95.901 65.175 95.5879C65.4501 95.2747 65.7887 95.0314 66.1907 94.8579C66.5927 94.6802 67.054 94.5913 67.5745 94.5913C68.095 94.5913 68.5583 94.6802 68.9646 94.8579C69.3708 95.0314 69.7115 95.2747 69.9866 95.5879C70.2659 95.901 70.4775 96.2713 70.6213 96.6987C70.7652 97.1219 70.8372 97.5853 70.8372 98.0889V98.2222C70.8372 98.7215 70.7652 99.1849 70.6213 99.6123C70.4775 100.035 70.2659 100.406 69.9866 100.723C69.7115 101.036 69.373 101.28 68.9709 101.453C68.5689 101.627 68.1077 101.713 67.5872 101.713C67.0667 101.713 66.6033 101.627 66.197 101.453C65.795 101.28 65.4543 101.036 65.175 100.723C64.9 100.406 64.6905 100.035 64.5466 99.6123C64.4028 99.1849 64.3308 98.7215 64.3308 98.2222ZM66.1589 98.0889V98.2222C66.1589 98.5099 66.1843 98.7786 66.2351 99.0283C66.2859 99.278 66.3663 99.498 66.4763 99.6885C66.5906 99.8747 66.7387 100.021 66.9207 100.126C67.1026 100.232 67.3248 100.285 67.5872 100.285C67.8411 100.285 68.059 100.232 68.241 100.126C68.4229 100.021 68.5689 99.8747 68.679 99.6885C68.789 99.498 68.8694 99.278 68.9202 99.0283C68.9752 98.7786 69.0027 98.5099 69.0027 98.2222V98.0889C69.0027 97.8096 68.9752 97.5472 68.9202 97.3018C68.8694 97.0521 68.7869 96.832 68.6726 96.6416C68.5626 96.4469 68.4166 96.2946 68.2346 96.1846C68.0527 96.0745 67.8326 96.0195 67.5745 96.0195C67.3163 96.0195 67.0963 96.0745 66.9143 96.1846C66.7366 96.2946 66.5906 96.4469 66.4763 96.6416C66.3663 96.832 66.2859 97.0521 66.2351 97.3018C66.1843 97.5472 66.1589 97.8096 66.1589 98.0889ZM79.2542 100.088V91.8364H81.095V101.586H79.4382L79.2542 100.088ZM74.9124 98.2349V98.1016C74.9124 97.5768 74.9716 97.1007 75.0901 96.6733C75.2086 96.2417 75.3821 95.8714 75.6106 95.5625C75.8391 95.2536 76.1205 95.0145 76.4548 94.8452C76.7891 94.6759 77.17 94.5913 77.5974 94.5913C77.9994 94.5913 78.3507 94.6759 78.6511 94.8452C78.9558 95.0145 79.2139 95.2557 79.4255 95.5688C79.6414 95.8778 79.8149 96.2438 79.946 96.667C80.0772 97.0859 80.1724 97.5451 80.2317 98.0444V98.3364C80.1724 98.8146 80.0772 99.259 79.946 99.6694C79.8149 100.08 79.6414 100.44 79.4255 100.749C79.2139 101.053 78.9558 101.29 78.6511 101.459C78.3464 101.629 77.991 101.713 77.5847 101.713C77.1573 101.713 76.7764 101.627 76.4421 101.453C76.1121 101.28 75.8328 101.036 75.6042 100.723C75.38 100.41 75.2086 100.042 75.0901 99.6187C74.9716 99.1955 74.9124 98.7342 74.9124 98.2349ZM76.7405 98.1016V98.2349C76.7405 98.5184 76.7616 98.7829 76.804 99.0283C76.8505 99.2738 76.9246 99.4917 77.0261 99.6821C77.1319 99.8683 77.2673 100.014 77.4324 100.12C77.6016 100.222 77.8069 100.272 78.0481 100.272C78.3612 100.272 78.6194 100.203 78.8225 100.063C79.0256 99.9191 79.1801 99.7223 79.2859 99.4727C79.3959 99.223 79.4594 98.9352 79.4763 98.6094V97.7778C79.4636 97.5112 79.4255 97.2721 79.3621 97.0605C79.3028 96.8447 79.2139 96.6606 79.0955 96.5083C78.9812 96.356 78.8373 96.2375 78.6638 96.1528C78.4945 96.0682 78.2935 96.0259 78.0608 96.0259C77.8238 96.0259 77.6207 96.0809 77.4514 96.1909C77.2821 96.2967 77.1446 96.4427 77.0388 96.6289C76.9373 96.8151 76.8611 97.0352 76.8103 97.2891C76.7638 97.5387 76.7405 97.8096 76.7405 98.1016ZM85.6843 101.713C85.1511 101.713 84.6729 101.629 84.2498 101.459C83.8266 101.286 83.4669 101.047 83.1707 100.742C82.8787 100.438 82.6544 100.084 82.4978 99.6821C82.3412 99.2759 82.2629 98.8442 82.2629 98.3872V98.1333C82.2629 97.6128 82.337 97.1367 82.4851 96.7051C82.6332 96.2734 82.8448 95.8989 83.1199 95.5815C83.3992 95.2642 83.7377 95.0208 84.1355 94.8516C84.5333 94.6781 84.9819 94.5913 85.4812 94.5913C85.9679 94.5913 86.3995 94.6717 86.7761 94.8325C87.1528 94.9933 87.468 95.2218 87.7219 95.5181C87.9801 95.8143 88.1747 96.1698 88.3059 96.5845C88.4371 96.995 88.5027 97.452 88.5027 97.9556V98.7173H83.0437V97.4985H86.7063V97.3589C86.7063 97.105 86.6597 96.8786 86.5667 96.6797C86.4778 96.4766 86.3424 96.3158 86.1604 96.1973C85.9784 96.0788 85.7457 96.0195 85.4622 96.0195C85.2209 96.0195 85.0136 96.0724 84.8401 96.1782C84.6666 96.284 84.5248 96.4321 84.4148 96.6226C84.309 96.813 84.2286 97.0373 84.1736 97.2954C84.1228 97.5493 84.0974 97.8286 84.0974 98.1333V98.3872C84.0974 98.6623 84.1355 98.9162 84.2117 99.1489C84.2921 99.3817 84.4042 99.5827 84.5481 99.752C84.6962 99.9212 84.8739 100.052 85.0813 100.146C85.2929 100.239 85.532 100.285 85.7986 100.285C86.1287 100.285 86.4355 100.222 86.719 100.095C87.0068 99.9635 87.2543 99.7668 87.4617 99.5044L88.3503 100.469C88.2065 100.677 88.0097 100.875 87.76 101.066C87.5146 101.256 87.2183 101.413 86.8713 101.536C86.5243 101.654 86.1287 101.713 85.6843 101.713ZM96.6531 93.9248L94.1394 101.586H92.1145L95.5486 92.3442H96.8372L96.6531 93.9248ZM98.7415 101.586L96.2214 93.9248L96.0183 92.3442H97.3196L100.773 101.586H98.7415ZM98.6272 98.146V99.6377H93.7458V98.146H98.6272ZM103.14 96.0386V104.227H101.312V94.7183H103.007L103.14 96.0386ZM107.489 98.0762V98.2095C107.489 98.7088 107.429 99.1722 107.311 99.5996C107.197 100.027 107.027 100.399 106.803 100.717C106.579 101.03 106.299 101.275 105.965 101.453C105.635 101.627 105.254 101.713 104.823 101.713C104.404 101.713 104.04 101.629 103.731 101.459C103.422 101.29 103.162 101.053 102.95 100.749C102.743 100.44 102.575 100.082 102.448 99.6758C102.322 99.2695 102.224 98.8337 102.156 98.3682V98.019C102.224 97.5197 102.322 97.0627 102.448 96.6479C102.575 96.229 102.743 95.8672 102.95 95.5625C103.162 95.2536 103.42 95.0145 103.724 94.8452C104.033 94.6759 104.395 94.5913 104.81 94.5913C105.246 94.5913 105.629 94.6738 105.959 94.8389C106.293 95.0039 106.572 95.2409 106.797 95.5498C107.025 95.8587 107.197 96.2269 107.311 96.6543C107.429 97.0817 107.489 97.5557 107.489 98.0762ZM105.654 98.2095V98.0762C105.654 97.7842 105.629 97.5155 105.578 97.27C105.531 97.0203 105.455 96.8024 105.349 96.6162C105.248 96.43 105.112 96.2861 104.943 96.1846C104.778 96.0788 104.577 96.0259 104.34 96.0259C104.09 96.0259 103.877 96.0661 103.699 96.1465C103.525 96.2269 103.384 96.3433 103.274 96.4956C103.164 96.6479 103.081 96.8299 103.026 97.0415C102.971 97.2531 102.937 97.4922 102.925 97.7588V98.6411C102.946 98.9543 103.005 99.2357 103.102 99.4854C103.2 99.7308 103.35 99.9255 103.553 100.069C103.756 100.213 104.023 100.285 104.353 100.285C104.594 100.285 104.797 100.232 104.962 100.126C105.127 100.016 105.26 99.8662 105.362 99.6758C105.468 99.4854 105.542 99.2653 105.584 99.0156C105.631 98.766 105.654 98.4972 105.654 98.2095ZM108.333 98.2222V98.0889C108.333 97.5853 108.405 97.1219 108.549 96.6987C108.692 96.2713 108.902 95.901 109.177 95.5879C109.452 95.2747 109.791 95.0314 110.193 94.8579C110.595 94.6802 111.056 94.5913 111.576 94.5913C112.097 94.5913 112.56 94.6802 112.967 94.8579C113.373 95.0314 113.713 95.2747 113.989 95.5879C114.268 95.901 114.479 96.2713 114.623 96.6987C114.767 97.1219 114.839 97.5853 114.839 98.0889V98.2222C114.839 98.7215 114.767 99.1849 114.623 99.6123C114.479 100.035 114.268 100.406 113.989 100.723C113.713 101.036 113.375 101.28 112.973 101.453C112.571 101.627 112.11 101.713 111.589 101.713C111.069 101.713 110.605 101.627 110.199 101.453C109.797 101.28 109.456 101.036 109.177 100.723C108.902 100.406 108.692 100.035 108.549 99.6123C108.405 99.1849 108.333 98.7215 108.333 98.2222ZM110.161 98.0889V98.2222C110.161 98.5099 110.186 98.7786 110.237 99.0283C110.288 99.278 110.368 99.498 110.478 99.6885C110.593 99.8747 110.741 100.021 110.923 100.126C111.105 100.232 111.327 100.285 111.589 100.285C111.843 100.285 112.061 100.232 112.243 100.126C112.425 100.021 112.571 99.8747 112.681 99.6885C112.791 99.498 112.871 99.278 112.922 99.0283C112.977 98.7786 113.005 98.5099 113.005 98.2222V98.0889C113.005 97.8096 112.977 97.5472 112.922 97.3018C112.871 97.0521 112.789 96.832 112.675 96.6416C112.565 96.4469 112.419 96.2946 112.237 96.1846C112.055 96.0745 111.835 96.0195 111.576 96.0195C111.318 96.0195 111.098 96.0745 110.916 96.1846C110.739 96.2946 110.593 96.4469 110.478 96.6416C110.368 96.832 110.288 97.0521 110.237 97.3018C110.186 97.5472 110.161 97.8096 110.161 98.0889ZM117.892 94.7183V101.586H116.058V94.7183H117.892ZM115.944 92.9282C115.944 92.6616 116.037 92.4416 116.223 92.2681C116.409 92.0946 116.659 92.0078 116.972 92.0078C117.281 92.0078 117.528 92.0946 117.715 92.2681C117.905 92.4416 118 92.6616 118 92.9282C118 93.1948 117.905 93.4149 117.715 93.5884C117.528 93.7619 117.281 93.8486 116.972 93.8486C116.659 93.8486 116.409 93.7619 116.223 93.5884C116.037 93.4149 115.944 93.1948 115.944 92.9282ZM119.111 98.2222V98.0889C119.111 97.5853 119.183 97.1219 119.327 96.6987C119.471 96.2713 119.68 95.901 119.955 95.5879C120.23 95.2747 120.569 95.0314 120.971 94.8579C121.373 94.6802 121.834 94.5913 122.355 94.5913C122.875 94.5913 123.339 94.6802 123.745 94.8579C124.151 95.0314 124.492 95.2747 124.767 95.5879C125.046 95.901 125.258 96.2713 125.402 96.6987C125.545 97.1219 125.617 97.5853 125.617 98.0889V98.2222C125.617 98.7215 125.545 99.1849 125.402 99.6123C125.258 100.035 125.046 100.406 124.767 100.723C124.492 101.036 124.153 101.28 123.751 101.453C123.349 101.627 122.888 101.713 122.367 101.713C121.847 101.713 121.384 101.627 120.977 101.453C120.575 101.28 120.235 101.036 119.955 100.723C119.68 100.406 119.471 100.035 119.327 99.6123C119.183 99.1849 119.111 98.7215 119.111 98.2222ZM120.939 98.0889V98.2222C120.939 98.5099 120.965 98.7786 121.015 99.0283C121.066 99.278 121.147 99.498 121.257 99.6885C121.371 99.8747 121.519 100.021 121.701 100.126C121.883 100.232 122.105 100.285 122.367 100.285C122.621 100.285 122.839 100.232 123.021 100.126C123.203 100.021 123.349 99.8747 123.459 99.6885C123.569 99.498 123.65 99.278 123.7 99.0283C123.755 98.7786 123.783 98.5099 123.783 98.2222V98.0889C123.783 97.8096 123.755 97.5472 123.7 97.3018C123.65 97.0521 123.567 96.832 123.453 96.6416C123.343 96.4469 123.197 96.2946 123.015 96.1846C122.833 96.0745 122.613 96.0195 122.355 96.0195C122.097 96.0195 121.877 96.0745 121.695 96.1846C121.517 96.2946 121.371 96.4469 121.257 96.6416C121.147 96.832 121.066 97.0521 121.015 97.3018C120.965 97.5472 120.939 97.8096 120.939 98.0889Z" fill="#118839"/>
<path d="M41.3396 166.762L38.8259 174.424H36.801L40.2351 165.182H41.5237L41.3396 166.762ZM43.428 174.424L40.908 166.762L40.7048 165.182H42.0061L45.4592 174.424H43.428ZM43.3137 170.984V172.475H38.4324V170.984H43.3137ZM48.1316 164.674V174.424H46.2971V164.674H48.1316ZM52.4797 173.123C52.704 173.123 52.9029 173.08 53.0764 172.996C53.2499 172.907 53.3853 172.784 53.4827 172.628C53.5842 172.467 53.6371 172.279 53.6414 172.063H55.3616C55.3573 172.545 55.2283 172.975 54.9744 173.351C54.7205 173.724 54.3798 174.018 53.9524 174.234C53.525 174.445 53.0468 174.551 52.5178 174.551C51.9846 174.551 51.5191 174.462 51.1213 174.284C50.7278 174.107 50.3998 173.861 50.1375 173.548C49.8751 173.231 49.6783 172.863 49.5471 172.444C49.4159 172.02 49.3503 171.568 49.3503 171.085V170.901C49.3503 170.414 49.4159 169.962 49.5471 169.543C49.6783 169.12 49.8751 168.751 50.1375 168.438C50.3998 168.121 50.7278 167.873 51.1213 167.696C51.5149 167.518 51.9762 167.429 52.5051 167.429C53.068 167.429 53.561 167.537 53.9841 167.753C54.4115 167.969 54.7458 168.277 54.9871 168.679C55.2325 169.077 55.3573 169.549 55.3616 170.095H53.6414C53.6371 169.866 53.5885 169.659 53.4954 169.473C53.4065 169.287 53.2753 169.139 53.1018 169.029C52.9325 168.914 52.7231 168.857 52.4734 168.857C52.2068 168.857 51.9889 168.914 51.8196 169.029C51.6503 169.139 51.5191 169.291 51.426 169.486C51.3329 169.676 51.2673 169.894 51.2292 170.139C51.1954 170.381 51.1785 170.635 51.1785 170.901V171.085C51.1785 171.352 51.1954 171.608 51.2292 171.853C51.2631 172.099 51.3266 172.317 51.4197 172.507C51.517 172.698 51.6503 172.848 51.8196 172.958C51.9889 173.068 52.2089 173.123 52.4797 173.123ZM60.1287 172.875V169.816C60.1287 169.596 60.0927 169.407 60.0208 169.251C59.9488 169.09 59.8367 168.965 59.6843 168.876C59.5362 168.787 59.3437 168.743 59.1067 168.743C58.9036 168.743 58.7279 168.779 58.5798 168.851C58.4317 168.919 58.3175 169.018 58.2371 169.149C58.1567 169.276 58.1165 169.426 58.1165 169.6H56.2883C56.2883 169.308 56.356 169.031 56.4915 168.768C56.6269 168.506 56.8236 168.275 57.0818 168.076C57.3399 167.873 57.6467 167.715 58.0022 167.6C58.3619 167.486 58.7639 167.429 59.2083 167.429C59.7415 167.429 60.2154 167.518 60.6301 167.696C61.0448 167.873 61.3707 168.14 61.6077 168.495C61.8489 168.851 61.9695 169.295 61.9695 169.828V172.767C61.9695 173.144 61.9928 173.453 62.0393 173.694C62.0859 173.931 62.1536 174.138 62.2424 174.316V174.424H60.3953C60.3064 174.238 60.2387 174.005 60.1921 173.726C60.1498 173.442 60.1287 173.159 60.1287 172.875ZM60.3699 170.241L60.3826 171.276H59.3606C59.1194 171.276 58.9099 171.303 58.7322 171.358C58.5544 171.413 58.4084 171.491 58.2942 171.593C58.1799 171.69 58.0953 171.805 58.0403 171.936C57.9895 172.067 57.9641 172.211 57.9641 172.367C57.9641 172.524 58.0001 172.666 58.072 172.793C58.144 172.915 58.2476 173.013 58.3831 173.085C58.5185 173.152 58.6772 173.186 58.8591 173.186C59.1342 173.186 59.3733 173.131 59.5764 173.021C59.7795 172.911 59.9361 172.776 60.0461 172.615C60.1604 172.454 60.2196 172.302 60.2239 172.158L60.7063 172.932C60.6386 173.106 60.5455 173.286 60.427 173.472C60.3127 173.658 60.1667 173.834 59.989 173.999C59.8113 174.16 59.5976 174.293 59.3479 174.399C59.0982 174.5 58.802 174.551 58.4592 174.551C58.0234 174.551 57.6277 174.464 57.2722 174.291C56.921 174.113 56.6417 173.87 56.4343 173.561C56.2312 173.248 56.1296 172.892 56.1296 172.494C56.1296 172.135 56.1973 171.815 56.3328 171.536C56.4682 171.257 56.6671 171.022 56.9294 170.831C57.196 170.637 57.5282 170.491 57.926 170.393C58.3238 170.292 58.7851 170.241 59.3098 170.241H60.3699ZM65.1687 169.022V174.424H63.3406V167.556H65.0544L65.1687 169.022ZM64.9021 170.749H64.407C64.407 170.241 64.4726 169.784 64.6038 169.378C64.7349 168.967 64.919 168.618 65.156 168.33C65.393 168.038 65.6744 167.816 66.0002 167.664C66.3303 167.507 66.6985 167.429 67.1047 167.429C67.4264 167.429 67.7205 167.476 67.9871 167.569C68.2537 167.662 68.4822 167.81 68.6726 168.013C68.8673 168.216 69.0154 168.485 69.1169 168.819C69.2227 169.153 69.2756 169.562 69.2756 170.044V174.424H67.4348V170.038C67.4348 169.733 67.3925 169.496 67.3079 169.327C67.2232 169.158 67.0984 169.039 66.9333 168.971C66.7725 168.899 66.5736 168.864 66.3367 168.864C66.0912 168.864 65.8775 168.912 65.6956 169.01C65.5178 169.107 65.3697 169.242 65.2512 169.416C65.137 169.585 65.0502 169.784 64.991 170.012C64.9317 170.241 64.9021 170.486 64.9021 170.749ZM73.5032 173.123C73.7275 173.123 73.9264 173.08 74.0999 172.996C74.2734 172.907 74.4088 172.784 74.5061 172.628C74.6077 172.467 74.6606 172.279 74.6648 172.063H76.385C76.3808 172.545 76.2517 172.975 75.9978 173.351C75.7439 173.724 75.4032 174.018 74.9758 174.234C74.5484 174.445 74.0702 174.551 73.5413 174.551C73.0081 174.551 72.5426 174.462 72.1448 174.284C71.7512 174.107 71.4233 173.861 71.1609 173.548C70.8985 173.231 70.7017 172.863 70.5706 172.444C70.4394 172.02 70.3738 171.568 70.3738 171.085V170.901C70.3738 170.414 70.4394 169.962 70.5706 169.543C70.7017 169.12 70.8985 168.751 71.1609 168.438C71.4233 168.121 71.7512 167.873 72.1448 167.696C72.5383 167.518 72.9996 167.429 73.5286 167.429C74.0914 167.429 74.5844 167.537 75.0076 167.753C75.435 167.969 75.7693 168.277 76.0105 168.679C76.2559 169.077 76.3808 169.549 76.385 170.095H74.6648C74.6606 169.866 74.6119 169.659 74.5188 169.473C74.4299 169.287 74.2987 169.139 74.1252 169.029C73.956 168.914 73.7465 168.857 73.4968 168.857C73.2302 168.857 73.0123 168.914 72.843 169.029C72.6737 169.139 72.5426 169.291 72.4495 169.486C72.3564 169.676 72.2908 169.894 72.2527 170.139C72.2188 170.381 72.2019 170.635 72.2019 170.901V171.085C72.2019 171.352 72.2188 171.608 72.2527 171.853C72.2865 172.099 72.35 172.317 72.4431 172.507C72.5404 172.698 72.6737 172.848 72.843 172.958C73.0123 173.068 73.2323 173.123 73.5032 173.123ZM80.6062 174.551C80.073 174.551 79.5948 174.466 79.1716 174.297C78.7485 174.124 78.3888 173.885 78.0925 173.58C77.8005 173.275 77.5763 172.922 77.4197 172.52C77.2631 172.114 77.1848 171.682 77.1848 171.225V170.971C77.1848 170.45 77.2589 169.974 77.407 169.543C77.5551 169.111 77.7667 168.737 78.0417 168.419C78.321 168.102 78.6596 167.858 79.0574 167.689C79.4552 167.516 79.9037 167.429 80.4031 167.429C80.8897 167.429 81.3214 167.509 81.698 167.67C82.0746 167.831 82.3899 168.059 82.6438 168.356C82.9019 168.652 83.0966 169.007 83.2278 169.422C83.359 169.833 83.4246 170.29 83.4246 170.793V171.555H77.9656V170.336H81.6282V170.197C81.6282 169.943 81.5816 169.716 81.4885 169.517C81.3997 169.314 81.2642 169.153 81.0823 169.035C80.9003 168.916 80.6676 168.857 80.384 168.857C80.1428 168.857 79.9355 168.91 79.762 169.016C79.5885 169.122 79.4467 169.27 79.3367 169.46C79.2309 169.651 79.1505 169.875 79.0955 170.133C79.0447 170.387 79.0193 170.666 79.0193 170.971V171.225C79.0193 171.5 79.0574 171.754 79.1335 171.987C79.2139 172.219 79.3261 172.42 79.47 172.59C79.6181 172.759 79.7958 172.89 80.0032 172.983C80.2148 173.076 80.4539 173.123 80.7205 173.123C81.0505 173.123 81.3573 173.059 81.6409 172.932C81.9286 172.801 82.1762 172.604 82.3835 172.342L83.2722 173.307C83.1283 173.514 82.9316 173.713 82.6819 173.904C82.4364 174.094 82.1402 174.251 81.7932 174.373C81.4462 174.492 81.0505 174.551 80.6062 174.551ZM91.759 172.926V164.674H93.5999V174.424H91.9431L91.759 172.926ZM87.4172 171.073V170.939C87.4172 170.414 87.4765 169.938 87.595 169.511C87.7135 169.079 87.887 168.709 88.1155 168.4C88.344 168.091 88.6254 167.852 88.9597 167.683C89.294 167.514 89.6749 167.429 90.1023 167.429C90.5043 167.429 90.8556 167.514 91.156 167.683C91.4607 167.852 91.7188 168.093 91.9304 168.406C92.1462 168.715 92.3197 169.081 92.4509 169.505C92.5821 169.924 92.6773 170.383 92.7366 170.882V171.174C92.6773 171.652 92.5821 172.097 92.4509 172.507C92.3197 172.918 92.1462 173.277 91.9304 173.586C91.7188 173.891 91.4607 174.128 91.156 174.297C90.8513 174.466 90.4958 174.551 90.0896 174.551C89.6622 174.551 89.2813 174.464 88.947 174.291C88.6169 174.117 88.3376 173.874 88.1091 173.561C87.8848 173.248 87.7135 172.879 87.595 172.456C87.4765 172.033 87.4172 171.572 87.4172 171.073ZM89.2454 170.939V171.073C89.2454 171.356 89.2665 171.621 89.3088 171.866C89.3554 172.111 89.4294 172.329 89.531 172.52C89.6368 172.706 89.7722 172.852 89.9373 172.958C90.1065 173.059 90.3118 173.11 90.553 173.11C90.8661 173.11 91.1243 173.04 91.3274 172.901C91.5305 172.757 91.685 172.56 91.7908 172.31C91.9008 172.061 91.9643 171.773 91.9812 171.447V170.615C91.9685 170.349 91.9304 170.11 91.8669 169.898C91.8077 169.682 91.7188 169.498 91.6003 169.346C91.4861 169.194 91.3422 169.075 91.1687 168.99C90.9994 168.906 90.7984 168.864 90.5657 168.864C90.3287 168.864 90.1256 168.919 89.9563 169.029C89.787 169.134 89.6495 169.28 89.5437 169.467C89.4421 169.653 89.366 169.873 89.3152 170.127C89.2686 170.376 89.2454 170.647 89.2454 170.939ZM98.7351 172.875V169.816C98.7351 169.596 98.6991 169.407 98.6272 169.251C98.5553 169.09 98.4431 168.965 98.2908 168.876C98.1427 168.787 97.9501 168.743 97.7131 168.743C97.51 168.743 97.3344 168.779 97.1863 168.851C97.0382 168.919 96.9239 169.018 96.8435 169.149C96.7631 169.276 96.7229 169.426 96.7229 169.6H94.8948C94.8948 169.308 94.9625 169.031 95.0979 168.768C95.2333 168.506 95.4301 168.275 95.6882 168.076C95.9464 167.873 96.2532 167.715 96.6086 167.6C96.9683 167.486 97.3704 167.429 97.8147 167.429C98.3479 167.429 98.8219 167.518 99.2366 167.696C99.6513 167.873 99.9771 168.14 100.214 168.495C100.455 168.851 100.576 169.295 100.576 169.828V172.767C100.576 173.144 100.599 173.453 100.646 173.694C100.692 173.931 100.76 174.138 100.849 174.316V174.424H99.0017C98.9128 174.238 98.8451 174.005 98.7986 173.726C98.7563 173.442 98.7351 173.159 98.7351 172.875ZM98.9763 170.241L98.989 171.276H97.967C97.7258 171.276 97.5164 171.303 97.3386 171.358C97.1609 171.413 97.0149 171.491 96.9006 171.593C96.7864 171.69 96.7017 171.805 96.6467 171.936C96.5959 172.067 96.5706 172.211 96.5706 172.367C96.5706 172.524 96.6065 172.666 96.6785 172.793C96.7504 172.915 96.8541 173.013 96.9895 173.085C97.1249 173.152 97.2836 173.186 97.4656 173.186C97.7406 173.186 97.9797 173.131 98.1829 173.021C98.386 172.911 98.5426 172.776 98.6526 172.615C98.7668 172.454 98.8261 172.302 98.8303 172.158L99.3127 172.932C99.245 173.106 99.1519 173.286 99.0334 173.472C98.9192 173.658 98.7732 173.834 98.5955 173.999C98.4177 174.16 98.204 174.293 97.9543 174.399C97.7047 174.5 97.4084 174.551 97.0657 174.551C96.6298 174.551 96.2341 174.464 95.8787 174.291C95.5274 174.113 95.2481 173.87 95.0408 173.561C94.8376 173.248 94.7361 172.892 94.7361 172.494C94.7361 172.135 94.8038 171.815 94.9392 171.536C95.0746 171.257 95.2735 171.022 95.5359 170.831C95.8025 170.637 96.1347 170.491 96.5325 170.393C96.9303 170.292 97.3915 170.241 97.9163 170.241H98.9763ZM110.148 172.006C110.148 171.841 110.123 171.692 110.072 171.561C110.025 171.426 109.937 171.303 109.805 171.193C109.674 171.079 109.49 170.967 109.253 170.857C109.016 170.747 108.709 170.632 108.333 170.514C107.914 170.378 107.516 170.226 107.139 170.057C106.767 169.888 106.437 169.691 106.149 169.467C105.866 169.238 105.641 168.974 105.476 168.673C105.316 168.373 105.235 168.024 105.235 167.626C105.235 167.241 105.32 166.892 105.489 166.578C105.658 166.261 105.895 165.99 106.2 165.766C106.505 165.537 106.864 165.362 107.279 165.239C107.698 165.116 108.157 165.055 108.656 165.055C109.338 165.055 109.932 165.178 110.44 165.423C110.948 165.669 111.342 166.005 111.621 166.432C111.904 166.86 112.046 167.349 112.046 167.899H110.155C110.155 167.628 110.097 167.391 109.983 167.188C109.873 166.98 109.704 166.817 109.475 166.699C109.251 166.58 108.968 166.521 108.625 166.521C108.295 166.521 108.02 166.572 107.8 166.674C107.58 166.771 107.414 166.904 107.304 167.073C107.194 167.239 107.139 167.425 107.139 167.632C107.139 167.789 107.177 167.93 107.254 168.057C107.334 168.184 107.453 168.303 107.609 168.413C107.766 168.523 107.958 168.627 108.187 168.724C108.415 168.821 108.68 168.916 108.98 169.01C109.484 169.162 109.926 169.333 110.307 169.524C110.692 169.714 111.014 169.928 111.272 170.165C111.53 170.402 111.725 170.67 111.856 170.971C111.987 171.271 112.052 171.612 112.052 171.993C112.052 172.395 111.974 172.755 111.818 173.072C111.661 173.389 111.435 173.658 111.138 173.878C110.842 174.098 110.489 174.265 110.078 174.38C109.668 174.494 109.209 174.551 108.701 174.551C108.244 174.551 107.793 174.492 107.349 174.373C106.905 174.251 106.5 174.066 106.136 173.821C105.777 173.576 105.489 173.262 105.273 172.882C105.057 172.501 104.949 172.05 104.949 171.53H106.86C106.86 171.817 106.905 172.061 106.993 172.26C107.082 172.458 107.207 172.619 107.368 172.742C107.533 172.865 107.728 172.954 107.952 173.009C108.18 173.064 108.43 173.091 108.701 173.091C109.031 173.091 109.302 173.045 109.513 172.951C109.729 172.858 109.888 172.729 109.99 172.564C110.095 172.399 110.148 172.213 110.148 172.006ZM115.163 167.556V174.424H113.328V167.556H115.163ZM113.214 165.766C113.214 165.499 113.307 165.279 113.493 165.106C113.68 164.932 113.929 164.845 114.242 164.845C114.551 164.845 114.799 164.932 114.985 165.106C115.176 165.279 115.271 165.499 115.271 165.766C115.271 166.032 115.176 166.253 114.985 166.426C114.799 166.6 114.551 166.686 114.242 166.686C113.929 166.686 113.68 166.6 113.493 166.426C113.307 166.253 113.214 166.032 113.214 165.766ZM118.502 169.054V174.424H116.674V167.556H118.394L118.502 169.054ZM120.571 167.511L120.539 169.206C120.45 169.194 120.343 169.183 120.216 169.175C120.093 169.162 119.981 169.156 119.879 169.156C119.621 169.156 119.397 169.189 119.206 169.257C119.02 169.321 118.864 169.416 118.737 169.543C118.614 169.67 118.521 169.824 118.457 170.006C118.398 170.188 118.364 170.395 118.356 170.628L117.988 170.514C117.988 170.07 118.032 169.661 118.121 169.289C118.21 168.912 118.339 168.584 118.508 168.305C118.682 168.026 118.893 167.81 119.143 167.657C119.392 167.505 119.678 167.429 120 167.429C120.101 167.429 120.205 167.437 120.311 167.454C120.417 167.467 120.503 167.486 120.571 167.511ZM124.469 174.551C123.935 174.551 123.457 174.466 123.034 174.297C122.611 174.124 122.251 173.885 121.955 173.58C121.663 173.275 121.439 172.922 121.282 172.52C121.125 172.114 121.047 171.682 121.047 171.225V170.971C121.047 170.45 121.121 169.974 121.269 169.543C121.417 169.111 121.629 168.737 121.904 168.419C122.183 168.102 122.522 167.858 122.92 167.689C123.317 167.516 123.766 167.429 124.265 167.429C124.752 167.429 125.184 167.509 125.56 167.67C125.937 167.831 126.252 168.059 126.506 168.356C126.764 168.652 126.959 169.007 127.09 169.422C127.221 169.833 127.287 170.29 127.287 170.793V171.555H121.828V170.336H125.49V170.197C125.49 169.943 125.444 169.716 125.351 169.517C125.262 169.314 125.127 169.153 124.945 169.035C124.763 168.916 124.53 168.857 124.246 168.857C124.005 168.857 123.798 168.91 123.624 169.016C123.451 169.122 123.309 169.27 123.199 169.46C123.093 169.651 123.013 169.875 122.958 170.133C122.907 170.387 122.882 170.666 122.882 170.971V171.225C122.882 171.5 122.92 171.754 122.996 171.987C123.076 172.219 123.188 172.42 123.332 172.59C123.48 172.759 123.658 172.89 123.865 172.983C124.077 173.076 124.316 173.123 124.583 173.123C124.913 173.123 125.22 173.059 125.503 172.932C125.791 172.801 126.038 172.604 126.246 172.342L127.135 173.307C126.991 173.514 126.794 173.713 126.544 173.904C126.299 174.094 126.003 174.251 125.656 174.373C125.309 174.492 124.913 174.551 124.469 174.551ZM130.118 169.022V174.424H128.29V167.556H130.004L130.118 169.022ZM129.851 170.749H129.356C129.356 170.241 129.422 169.784 129.553 169.378C129.684 168.967 129.868 168.618 130.105 168.33C130.342 168.038 130.624 167.816 130.949 167.664C131.28 167.507 131.648 167.429 132.054 167.429C132.376 167.429 132.67 167.476 132.936 167.569C133.203 167.662 133.431 167.81 133.622 168.013C133.816 168.216 133.965 168.485 134.066 168.819C134.172 169.153 134.225 169.562 134.225 170.044V174.424H132.384V170.038C132.384 169.733 132.342 169.496 132.257 169.327C132.172 169.158 132.048 169.039 131.883 168.971C131.722 168.899 131.523 168.864 131.286 168.864C131.04 168.864 130.827 168.912 130.645 169.01C130.467 169.107 130.319 169.242 130.2 169.416C130.086 169.585 129.999 169.784 129.94 170.012C129.881 170.241 129.851 170.486 129.851 170.749ZM138.776 174.551C138.243 174.551 137.765 174.466 137.342 174.297C136.918 174.124 136.559 173.885 136.262 173.58C135.97 173.275 135.746 172.922 135.59 172.52C135.433 172.114 135.355 171.682 135.355 171.225V170.971C135.355 170.45 135.429 169.974 135.577 169.543C135.725 169.111 135.937 168.737 136.212 168.419C136.491 168.102 136.83 167.858 137.227 167.689C137.625 167.516 138.074 167.429 138.573 167.429C139.06 167.429 139.491 167.509 139.868 167.67C140.245 167.831 140.56 168.059 140.814 168.356C141.072 168.652 141.267 169.007 141.398 169.422C141.529 169.833 141.594 170.29 141.594 170.793V171.555H136.135V170.336H139.798V170.197C139.798 169.943 139.752 169.716 139.658 169.517C139.57 169.314 139.434 169.153 139.252 169.035C139.07 168.916 138.837 168.857 138.554 168.857C138.313 168.857 138.105 168.91 137.932 169.016C137.758 169.122 137.617 169.27 137.507 169.46C137.401 169.651 137.32 169.875 137.265 170.133C137.215 170.387 137.189 170.666 137.189 170.971V171.225C137.189 171.5 137.227 171.754 137.303 171.987C137.384 172.219 137.496 172.42 137.64 172.59C137.788 172.759 137.966 172.89 138.173 172.983C138.385 173.076 138.624 173.123 138.89 173.123C139.22 173.123 139.527 173.059 139.811 172.932C140.099 172.801 140.346 172.604 140.553 172.342L141.442 173.307C141.298 173.514 141.101 173.713 140.852 173.904C140.606 174.094 140.31 174.251 139.963 174.373C139.616 174.492 139.22 174.551 138.776 174.551Z" fill="#AC8A10"/>
<path d="M42.3933 135.587C42.3933 135.422 42.3679 135.274 42.3171 135.142C42.2706 135.007 42.1817 134.884 42.0505 134.774C41.9194 134.66 41.7353 134.548 41.4983 134.438C41.2613 134.328 40.9545 134.213 40.5779 134.095C40.1589 133.96 39.7611 133.807 39.3845 133.638C39.0121 133.469 38.682 133.272 38.3943 133.048C38.1108 132.819 37.8865 132.555 37.7214 132.254C37.5606 131.954 37.4802 131.605 37.4802 131.207C37.4802 130.822 37.5649 130.473 37.7341 130.159C37.9034 129.842 38.1404 129.571 38.4451 129.347C38.7498 129.118 39.1095 128.943 39.5242 128.82C39.9431 128.697 40.4023 128.636 40.9016 128.636C41.5829 128.636 42.1775 128.759 42.6853 129.004C43.1931 129.25 43.5867 129.586 43.866 130.013C44.1495 130.441 44.2913 130.93 44.2913 131.48H42.3997C42.3997 131.209 42.3425 130.972 42.2283 130.769C42.1182 130.561 41.949 130.399 41.7205 130.28C41.4962 130.162 41.2126 130.102 40.8699 130.102C40.5398 130.102 40.2647 130.153 40.0447 130.255C39.8246 130.352 39.6596 130.485 39.5496 130.655C39.4395 130.82 39.3845 131.006 39.3845 131.213C39.3845 131.37 39.4226 131.511 39.4988 131.638C39.5792 131.765 39.6977 131.884 39.8542 131.994C40.0108 132.104 40.2034 132.208 40.4319 132.305C40.6604 132.402 40.9249 132.497 41.2253 132.591C41.7289 132.743 42.1711 132.914 42.552 133.105C42.9371 133.295 43.2587 133.509 43.5168 133.746C43.775 133.983 43.9696 134.252 44.1008 134.552C44.232 134.852 44.2976 135.193 44.2976 135.574C44.2976 135.976 44.2193 136.336 44.0627 136.653C43.9062 136.97 43.6798 137.239 43.3835 137.459C43.0873 137.679 42.734 137.846 42.3235 137.961C41.913 138.075 41.4539 138.132 40.946 138.132C40.489 138.132 40.0383 138.073 39.594 137.954C39.1497 137.832 38.7455 137.648 38.3816 137.402C38.0219 137.157 37.7341 136.844 37.5183 136.463C37.3025 136.082 37.1946 135.631 37.1946 135.111H39.1052C39.1052 135.398 39.1497 135.642 39.2385 135.841C39.3274 136.039 39.4522 136.2 39.613 136.323C39.7781 136.446 39.9727 136.535 40.197 136.59C40.4255 136.645 40.6752 136.672 40.946 136.672C41.2761 136.672 41.547 136.626 41.7585 136.532C41.9744 136.439 42.1331 136.31 42.2346 136.145C42.3404 135.98 42.3933 135.794 42.3933 135.587ZM47.408 131.137V138.005H45.5735V131.137H47.408ZM45.4592 129.347C45.4592 129.08 45.5523 128.86 45.7385 128.687C45.9247 128.513 46.1744 128.427 46.4875 128.427C46.7965 128.427 47.044 128.513 47.2302 128.687C47.4207 128.86 47.5159 129.08 47.5159 129.347C47.5159 129.614 47.4207 129.834 47.2302 130.007C47.044 130.181 46.7965 130.267 46.4875 130.267C46.1744 130.267 45.9247 130.181 45.7385 130.007C45.5523 129.834 45.4592 129.614 45.4592 129.347ZM50.7468 132.635V138.005H48.9187V131.137H50.6389L50.7468 132.635ZM52.8162 131.093L52.7844 132.787C52.6956 132.775 52.5876 132.764 52.4607 132.756C52.338 132.743 52.2258 132.737 52.1243 132.737C51.8661 132.737 51.6418 132.77 51.4514 132.838C51.2652 132.902 51.1086 132.997 50.9817 133.124C50.859 133.251 50.7659 133.405 50.7024 133.587C50.6431 133.769 50.6093 133.976 50.6008 134.209L50.2327 134.095C50.2327 133.651 50.2771 133.242 50.366 132.87C50.4548 132.493 50.5839 132.165 50.7532 131.886C50.9267 131.607 51.1383 131.391 51.3879 131.239C51.6376 131.086 51.9233 131.01 52.2449 131.01C52.3464 131.01 52.4501 131.018 52.5559 131.035C52.6617 131.048 52.7485 131.067 52.8162 131.093ZM56.7136 138.132C56.1804 138.132 55.7022 138.047 55.2791 137.878C54.8559 137.705 54.4962 137.466 54.2 137.161C53.908 136.856 53.6837 136.503 53.5271 136.101C53.3705 135.695 53.2922 135.263 53.2922 134.806V134.552C53.2922 134.031 53.3663 133.555 53.5144 133.124C53.6625 132.692 53.8741 132.318 54.1492 132C54.4285 131.683 54.767 131.44 55.1648 131.27C55.5626 131.097 56.0111 131.01 56.5105 131.01C56.9972 131.01 57.4288 131.09 57.8054 131.251C58.182 131.412 58.4973 131.641 58.7512 131.937C59.0094 132.233 59.204 132.588 59.3352 133.003C59.4664 133.414 59.532 133.871 59.532 134.374V135.136H54.073V133.917H57.7356V133.778C57.7356 133.524 57.689 133.297 57.5959 133.098C57.5071 132.895 57.3717 132.734 57.1897 132.616C57.0077 132.497 56.775 132.438 56.4915 132.438C56.2502 132.438 56.0429 132.491 55.8694 132.597C55.6959 132.703 55.5541 132.851 55.4441 133.041C55.3383 133.232 55.2579 133.456 55.2029 133.714C55.1521 133.968 55.1267 134.247 55.1267 134.552V134.806C55.1267 135.081 55.1648 135.335 55.241 135.568C55.3214 135.8 55.4335 136.001 55.5774 136.171C55.7255 136.34 55.9032 136.471 56.1106 136.564C56.3222 136.657 56.5613 136.704 56.8279 136.704C57.158 136.704 57.4648 136.64 57.7483 136.513C58.0361 136.382 58.2836 136.185 58.491 135.923L59.3796 136.888C59.2358 137.095 59.039 137.294 58.7893 137.485C58.5439 137.675 58.2476 137.832 57.9006 137.954C57.5536 138.073 57.158 138.132 56.7136 138.132ZM62.363 132.603V138.005H60.5349V131.137H62.2488L62.363 132.603ZM62.0964 134.33H61.6013C61.6013 133.822 61.6669 133.365 61.7981 132.959C61.9293 132.548 62.1134 132.199 62.3503 131.911C62.5873 131.619 62.8687 131.397 63.1946 131.245C63.5247 131.088 63.8928 131.01 64.2991 131.01C64.6207 131.01 64.9148 131.057 65.1814 131.15C65.448 131.243 65.6765 131.391 65.8669 131.594C66.0616 131.797 66.2097 132.066 66.3113 132.4C66.4171 132.734 66.47 133.143 66.47 133.625V138.005H64.6292V133.619C64.6292 133.314 64.5868 133.077 64.5022 132.908C64.4176 132.739 64.2927 132.62 64.1277 132.552C63.9669 132.481 63.768 132.445 63.531 132.445C63.2856 132.445 63.0719 132.493 62.8899 132.591C62.7122 132.688 62.564 132.823 62.4456 132.997C62.3313 133.166 62.2445 133.365 62.1853 133.594C62.1261 133.822 62.0964 134.067 62.0964 134.33ZM71.0212 138.132C70.488 138.132 70.0098 138.047 69.5867 137.878C69.1635 137.705 68.8038 137.466 68.5076 137.161C68.2156 136.856 67.9913 136.503 67.8347 136.101C67.6781 135.695 67.5999 135.263 67.5999 134.806V134.552C67.5999 134.031 67.6739 133.555 67.822 133.124C67.9701 132.692 68.1817 132.318 68.4568 132C68.7361 131.683 69.0746 131.44 69.4724 131.27C69.8702 131.097 70.3188 131.01 70.8181 131.01C71.3048 131.01 71.7364 131.09 72.113 131.251C72.4897 131.412 72.8049 131.641 73.0588 131.937C73.317 132.233 73.5116 132.588 73.6428 133.003C73.774 133.414 73.8396 133.871 73.8396 134.374V135.136H68.3806V133.917H72.0432V133.778C72.0432 133.524 71.9967 133.297 71.9036 133.098C71.8147 132.895 71.6793 132.734 71.4973 132.616C71.3153 132.497 71.0826 132.438 70.7991 132.438C70.5579 132.438 70.3505 132.491 70.177 132.597C70.0035 132.703 69.8617 132.851 69.7517 133.041C69.6459 133.232 69.5655 133.456 69.5105 133.714C69.4597 133.968 69.4343 134.247 69.4343 134.552V134.806C69.4343 135.081 69.4724 135.335 69.5486 135.568C69.629 135.8 69.7411 136.001 69.885 136.171C70.0331 136.34 70.2109 136.471 70.4182 136.564C70.6298 136.657 70.8689 136.704 71.1355 136.704C71.4656 136.704 71.7724 136.64 72.0559 136.513C72.3437 136.382 72.5912 136.185 72.7986 135.923L73.6873 136.888C73.5434 137.095 73.3466 137.294 73.0969 137.485C72.8515 137.675 72.5553 137.832 72.2083 137.954C71.8612 138.073 71.4656 138.132 71.0212 138.132Z" fill="#AC8A10"/>
<g clip-path="url(#clip0_279_7)">
<path d="M30.4235 92.7697C30.4235 100.521 20.3652 107.165 20.3652 107.165C20.3652 107.165 10.3068 100.521 10.3068 92.7697C10.3068 90.1265 11.3665 87.5917 13.2528 85.7227C15.1391 83.8537 17.6975 82.8037 20.3652 82.8037C23.0328 82.8037 25.5912 83.8537 27.4775 85.7227C29.3638 87.5917 30.4235 90.1265 30.4235 92.7697Z" stroke="#118839" stroke-width="2" stroke-linecap="round" stroke-linejoin="round"/>
<path d="M20.3651 96.0915C22.2168 96.0915 23.7179 94.6042 23.7179 92.7695C23.7179 90.9348 22.2168 89.4475 20.3651 89.4475C18.5134 89.4475 17.0123 90.9348 17.0123 92.7695C17.0123 94.6042 18.5134 96.0915 20.3651 96.0915Z" stroke="#118839" stroke-width="2" stroke-linecap="round" stroke-linejoin="round"/>
</g>
<g clip-path="url(#clip1_279_7)">
<path d="M30.4235 58.3195C30.4235 66.0708 20.3652 72.7148 20.3652 72.7148C20.3652 72.7148 10.3068 66.0708 10.3068 58.3195C10.3068 55.6763 11.3665 53.1415 13.2528 51.2725C15.1391 49.4035 17.6975 48.3535 20.3652 48.3535C23.0328 48.3535 25.5912 49.4035 27.4775 51.2725C29.3638 53.1415 30.4235 55.6763 30.4235 58.3195Z" stroke="#E01010" stroke-width="2" stroke-linecap="round" stroke-linejoin="round"/>
<path d="M20.3651 61.6413C22.2168 61.6413 23.7179 60.154 23.7179 58.3193C23.7179 56.4846 22.2168 54.9973 20.3651 54.9973C18.5134 54.9973 17.0123 56.4846 17.0123 58.3193C17.0123 60.154 18.5134 61.6413 20.3651 61.6413Z" stroke="#E01010" stroke-width="2" stroke-linecap="round" stroke-linejoin="round"/>
</g>
<g clip-path="url(#clip2_279_7)">
<path d="M30.4235 130.173C30.4235 137.924 20.3652 144.568 20.3652 144.568C20.3652 144.568 10.3068 137.924 10.3068 130.173C10.3068 127.53 11.3665 124.995 13.2528 123.126C15.1391 121.257 17.6975 120.207 20.3652 120.207C23.0328 120.207 25.5912 121.257 27.4775 123.126C29.3638 124.995 30.4235 127.53 30.4235 130.173Z" stroke="#AC8A10" stroke-width="2" stroke-linecap="round" stroke-linejoin="round"/>
<path d="M20.3651 133.495C22.2168 133.495 23.7179 132.007 23.7179 130.173C23.7179 128.338 22.2168 126.851 20.3651 126.851C18.5134 126.851 17.0123 128.338 17.0123 130.173C17.0123 132.007 18.5134 133.495 20.3651 133.495Z" stroke="#AC8A10" stroke-width="2" stroke-linecap="round" stroke-linejoin="round"/>
</g>
<path d="M32.7763 169.298C32.7763 175.804 27.4508 181.094 20.8619 181.094C14.273 181.094 8.94739 175.804 8.94739 169.298C8.94739 162.793 14.273 157.503 20.8619 157.503C27.4508 157.503 32.7763 162.793 32.7763 169.298Z" fill="#AC8A10" fill-opacity="0.5" stroke="#AC8A10" stroke-width="2"/>
<path d="M32.7763 23.623C32.7763 30.1289 27.4508 35.4188 20.8619 35.4188C14.273 35.4188 8.94739 30.1289 8.94739 23.623C8.94739 17.117 14.273 11.8271 20.8619 11.8271C27.4508 11.8271 32.7763 17.117 32.7763 23.623Z" fill="#E01010" fill-opacity="0.5" stroke="#E01010" stroke-width="2"/>
<defs>
<clipPath id="clip0_279_7">
<rect width="26.8224" height="26.5759" fill="white" transform="translate(6.95398 81.6963)"/>
</clipPath>
<clipPath id="clip1_279_7">
<rect width="26.8224" height="26.5759" fill="white" transform="translate(6.95398 47.2461)"/>
</clipPath>
<clipPath id="clip2_279_7">
<rect width="26.8224" height="26.5759" fill="white" transform="translate(6.95398 119.099)"/>
</clipPath>
</defs>
</svg>
